<svg xmlns="http://www.w3.org/2000/svg" data-name="Layer 1" viewBox="0 0 128 160" x="0px" y="0px"><title>Artboard 57</title><path d="M78,28H50a2,2,0,0,0,0,4H78a2,2,0,0,0,0-4Z"/><path d="M64,0A52,52,0,0,0,46,100.8l14.68,25.27a4,4,0,0,0,6.64,0L82,100.8A52,52,0,0,0,64,0ZM80,39.8V80a4,4,0,0,1-8,0V40H68V80a4,4,0,0,1-8,0V40H56V80a4,4,0,0,1-8,0V39.8A10,10,0,0,1,50,20H78a10,10,0,0,1,2,19.8Z"/><text x="0" y="143" fill="#000000" font-size="5px" font-weight="bold" font-family="'Helvetica Neue', Helvetica, Arial-Unicode, Arial, Sans-serif">Created by Juraj Sedlák</text><text x="0" y="148" fill="#000000" font-size="5px" font-weight="bold" font-family="'Helvetica Neue', Helvetica, Arial-Unicode, Arial, Sans-serif">from the Noun Project</text></svg>