<svg xmlns="http://www.w3.org/2000/svg" data-name="Layer 1" viewBox="0 0 128 160" x="0px" y="0px"><title>Artboard 97</title><rect x="56" y="48" width="16" height="24"/><path d="M40,44h8a4,4,0,0,1,4-4H76a4,4,0,0,1,4,4h8V36H40Z"/><path d="M64,0A52,52,0,0,0,46,100.8l14.68,25.27a4,4,0,0,0,6.64,0L82,100.8A52,52,0,0,0,64,0ZM96,48a4,4,0,0,1-4,4H80V76a4,4,0,0,1-4,4H52a4,4,0,0,1-4-4V52H36a4,4,0,0,1-4-4V32a4,4,0,0,1,4-4H92a4,4,0,0,1,4,4Z"/><text x="0" y="143" fill="#000000" font-size="5px" font-weight="bold" font-family="'Helvetica Neue', Helvetica, Arial-Unicode, Arial, Sans-serif">Created by Juraj Sedlák</text><text x="0" y="148" fill="#000000" font-size="5px" font-weight="bold" font-family="'Helvetica Neue', Helvetica, Arial-Unicode, Arial, Sans-serif">from the Noun Project</text></svg>