<svg xmlns="http://www.w3.org/2000/svg" data-name="Layer 1" viewBox="0 0 128 160" x="0px" y="0px"><title>Artboard 14</title><path d="M84,58a8,8,0,0,0,7.9-6.72L84,41.4Z"/><path d="M64,0A52,52,0,0,0,46,100.8l14.68,25.27a4,4,0,0,0,6.64,0L82,100.8A52,52,0,0,0,64,0Zm0,42A16,16,0,0,1,52,57.47V82a4,4,0,0,1-8,0V57.47A16,16,0,0,1,32,42V30a4,4,0,0,1,8,0V42a8,8,0,0,0,4,6.92V30a4,4,0,0,1,8,0V48.92A8,8,0,0,0,56,42V30a4,4,0,0,1,8,0ZM84,66V82a4,4,0,0,1-8,0V30a4,4,0,0,1,7.12-2.5l16,20A4,4,0,0,1,100,50,16,16,0,0,1,84,66Z"/><text x="0" y="143" fill="#000000" font-size="5px" font-weight="bold" font-family="'Helvetica Neue', Helvetica, Arial-Unicode, Arial, Sans-serif">Created by Juraj Sedlák</text><text x="0" y="148" fill="#000000" font-size="5px" font-weight="bold" font-family="'Helvetica Neue', Helvetica, Arial-Unicode, Arial, Sans-serif">from the Noun Project</text></svg>